<svg width="48" height="48" viewBox="0 0 48 48" fill="none" xmlns="http://www.w3.org/2000/svg">
<path fill-rule="evenodd" clip-rule="evenodd" d="M23.9999 11.0484L25.53 9.40458C29.7553 4.86514 36.6058 4.86514 40.831 9.40457C45.0562 13.944 45.0562 21.3039 40.831 25.8433L27.0601 40.6382C25.37 42.4539 22.6298 42.4539 20.9397 40.6382L7.16887 25.8433C2.94363 21.3039 2.94363 13.944 7.16887 9.40457C11.3941 4.86514 18.2446 4.86514 22.4698 9.40458L23.9999 11.0484ZM33.9999 10.5C33.1715 10.5 32.4999 11.1716 32.4999 12C32.4999 12.8284 33.1715 13.5 33.9999 13.5C35.3807 13.5 36.4999 14.6193 36.4999 16C36.4999 16.8284 37.1715 17.5 37.9999 17.5C38.8284 17.5 39.4999 16.8284 39.4999 16C39.4999 12.9624 37.0375 10.5 33.9999 10.5Z" fill="white"/>
</svg>
